<?xml version="1.0" encoding="UTF-8" standalone="no"?>
<!-- Created with Inkscape (http://www.inkscape.org/) -->

<svg
   width="169.33333mm"
   height="84.679901mm"
   viewBox="0 0 169.33333 84.679901"
   version="1.1"
   id="svg5"
   inkscape:version="1.1.2 (76b9e6a115, 2022-02-25)"
   sodipodi:docname="devops.svg"
   xmlns:inkscape="http://www.inkscape.org/namespaces/inkscape"
   xmlns:sodipodi="http://sodipodi.sourceforge.net/DTD/sodipodi-0.dtd"
   xmlns="http://www.w3.org/2000/svg"
   xmlns:svg="http://www.w3.org/2000/svg">
  <sodipodi:namedview
     id="namedview7"
     pagecolor="#ffffff"
     bordercolor="#666666"
     borderopacity="1.0"
     inkscape:pageshadow="2"
     inkscape:pageopacity="0.0"
     inkscape:pagecheckerboard="0"
     inkscape:document-units="mm"
     showgrid="false"
     inkscape:zoom="0.75187991"
     inkscape:cx="397.00489"
     inkscape:cy="452.86487"
     inkscape:window-width="1848"
     inkscape:window-height="1016"
     inkscape:window-x="72"
     inkscape:window-y="27"
     inkscape:window-maximized="1"
     inkscape:current-layer="layer1" />
  <defs
     id="defs2" />
  <g
     inkscape:label="Calque 1"
     inkscape:groupmode="layer"
     id="layer1"
     transform="translate(-0.11331686,-0.74107512)">
    <path
       style="fill:#006400;stroke-width:0.264583"
       d="m 131.0556,0.74372112 c -10.26054,0 -19.90196,3.99256198 -27.14625,11.24479088 L 84.779984,31.115237 65.677067,11.985867 C 58.424838,4.7336371 48.786067,0.74107512 38.530817,0.74107512 17.340338,0.74367512 0.11331686,17.965447 0.11331686,39.132117 v 7.87135 c 0,21.17461 17.22702114,38.39105 38.39104214,38.39105 10.260541,0 19.901958,-3.99257 27.14625,-11.2448 l 19.129375,-19.08968 19.110846,19.11614 c 7.25223,7.25223 16.891,11.2448 27.14625,11.2448 21.18519,-0.0132 38.40956,-17.23761 38.40956,-38.40428 v -7.87135 c 0,-21.1799 -17.22437,-38.40162588 -38.39104,-38.40162588 z M 53.691442,62.203787 c -4.050771,4.05077 -9.442979,6.28385 -15.181792,6.28385 -11.832166,-0.0132 -21.463,-9.64406 -21.463,-21.47094 v -7.87135 c 0,-11.83217 9.633479,-21.46565 21.468292,-21.46565 5.738812,0 11.128375,2.23256 15.181792,6.28386 l 19.110854,19.11614 z m 98.821868,-15.18709 c 0,11.83217 -9.63348,21.46565 -21.46829,21.46565 -5.73881,0 -11.12838,-2.23256 -15.18179,-6.28386 L 96.752375,43.082347 115.86323,23.966197 c 4.05077,-4.05077 9.44298,-6.28385 15.18179,-6.28385 11.83746,-0.008 21.46829,9.62289 21.46829,21.44977 z"
       id="path62" />
    <path
       style="fill:#ffcd22;stroke-width:0.0783909"
       d="m 41.662284,40.390997 h 8.740598 c 1.0426,0 1.983292,0.65064 2.281179,1.62269 0.431151,0.97989 0.15678,2.0852 -0.627129,2.77505 l -20.068099,17.55958 c -0.885818,0.76823 -2.181622,0.83095 -3.128585,0.14111 -0.947748,-0.68984 -1.292668,-1.9441 -0.830945,-3.01806 l 6.029053,-14.06335 h -8.81115 c -0.9744,0 -1.910154,-0.65064 -2.277729,-1.62269 -0.367576,-0.97989 -0.09012,-2.0852 0.696582,-2.77504 L 43.731807,23.45211 c 0.885818,-0.771211 2.17927,-0.829926 3.127801,-0.141417 0.948531,0.688743 1.293452,1.940647 0.830945,3.01774 z"
       id="path18" />
    <path
       style="fill:#00008b;stroke-width:0.0716621"
       d="m 146.54956,34.741087 c 0.23648,0.61629 0.0358,1.31141 -0.45147,1.76289 l -3.10298,2.82349 c 0.0788,0.59479 0.12183,1.20392 0.12183,1.82022 0,0.61629 -0.043,1.22542 -0.12183,1.82022 l 3.10298,2.82349 c 0.4873,0.45147 0.68795,1.14659 0.45147,1.76289 -0.31532,0.85278 -0.69513,1.67689 -1.1251,2.45801 l -0.33681,0.58046 c -0.47297,0.78829 -1.00327,1.53357 -1.58374,2.24303 -0.42997,0.5088 -1.12509,0.68795 -1.75572,0.4873 l -3.99158,-1.27558 c -0.96028,0.73812 -2.08537,1.35441 -3.15314,1.82738 l -0.89578,4.09191 c -0.14332,0.64496 -0.64496,1.1036 -1.30425,1.27559 -0.98894,0.16482 -2.00654,0.25082 -3.11014,0.25082 -0.9746,0 -1.9922,-0.086 -2.98114,-0.25082 -0.6593,-0.17199 -1.16093,-0.63063 -1.30426,-1.27559 l -0.89577,-4.09191 c -1.13226,-0.47297 -2.19286,-1.08926 -3.15314,-1.82738 l -3.98871,1.27558 c -0.6335,0.20065 -1.33221,0.0215 -1.75644,-0.4873 -0.58118,-0.70946 -1.11149,-1.45474 -1.58446,-2.24303 l -0.33537,-0.58046 c -0.43499,-0.78112 -0.81337,-1.60523 -1.13083,-2.45801 -0.23219,-0.6163 -0.0366,-1.31142 0.45505,-1.76289 l 3.10011,-2.82349 c -0.0788,-0.5948 -0.11968,-1.20393 -0.11968,-1.82022 0,-0.6163 0.0408,-1.22543 0.11968,-1.82022 l -3.10011,-2.82349 c -0.4916,-0.45148 -0.68724,-1.13943 -0.45505,-1.76289 0.31746,-0.85278 0.69655,-1.6769 1.13083,-2.45802 l 0.33466,-0.58046 c 0.47368,-0.78828 1.00399,-1.53357 1.58517,-2.239441 0.42423,-0.51239 1.12294,-0.69011 1.75644,-0.48802 l 3.98871,1.272721 c 0.96028,-0.740991 2.02088,-1.357281 3.15314,-1.825241 l 0.89577,-4.09191 c 0.14333,-0.65069 0.64496,-1.16737 1.30426,-1.27702 0.98894,-0.16546 2.00654,-0.25153 3.04564,-0.25153 1.0391,0 2.0567,0.0861 3.04564,0.25153 0.65929,0.10965 1.16093,0.62633 1.30425,1.27702 l 0.89578,4.09191 c 1.06777,0.46796 2.19286,1.08425 3.15314,1.825241 l 3.99158,-1.272721 c 0.63063,-0.20209 1.32575,-0.0244 1.75572,0.48802 0.58047,0.705871 1.11077,1.451161 1.58374,2.239441 l 0.33681,0.58046 c 0.42997,0.78112 0.80978,1.60524 1.1251,2.45802 z m -17.19176,12.13957 c 3.16747,0 5.73297,-2.56551 5.73297,-5.79747 0,-3.10297 -2.5655,-5.73297 -5.73297,-5.73297 -3.16747,0 -5.73297,2.63 -5.73297,5.73297 0,3.23196 2.5655,5.79747 5.73297,5.79747 z"
       id="path27" />
  </g>
</svg>
