<svg viewBox="0 0 80.74 123.87" xmlns="http://www.w3.org/2000/svg" xmlns:xlink="http://www.w3.org/1999/xlink">
	<path d="m47.68 82.93h-26.45c-2.79 0-5 1.78-5 4.07s2.28 4.06 5 4.06h26.32c2.8 0 5-1.78 5-4.06s-2.2-4.07-4.87-4.07z" fill="#000"/>
	<path d="m52.63 98.44c0-2.16-2.28-4.07-4.95-4.07h-26.45c-2.79 0-5 1.78-5 4.07s2.28 4.06 5 4.06h26.32c2.8 0 5.08-1.77 5.08-4.06z" fill="#000"/>
	<path d="m25.05 106.19c-2.8 0-5 1.78-5 4.07s2.29 4.07 5 4.07h18.95c2.8 0 5-1.78 5-4.07s-2.29-4.07-5-4.07z" fill="#000"/>
	<path d="m34.46 3.35a33.2 33.2 0 0 0 -33.18 33.18c0 9.28 2.92 14.36 5.84 19.7 2.8 5 5.85 10.17 6.74 19.45a3.91 3.91 0 0 0 3.82 3.82h33.32a4 4 0 0 0 3.31-1.91 7.24 7.24 0 0 0 .63-2.92 1.61 1.61 0 0 1 .13-.77c1.14-8.13 3.94-13.09 6.61-17.79 3-5.34 5.85-10.43 5.85-19.71a33 33 0 0 0 -33.07-33.05z" fill="#000"/>
</svg>
