<svg viewBox="0 0 73.74 123.87" xmlns="http://www.w3.org/2000/svg" xmlns:xlink="http://www.w3.org/1999/xlink">
	<path d="m31.07 45.71a21.46 21.46 0 0 0 -21.65 21.16v2.95l21.41.24z" fill="#000"/>
	<path d="m53.67 70.32v-2.95a21.48 21.48 0 0 0 -19.67-21.57l-.28 24.3z" fill="#000"/>
	<path d="m9.1 94.92a17 17 0 0 0 16.79 17.17l10.33.12a17 17 0 0 0 17.17-16.79l.25-22.15-44.29-.49z" fill="#000"/>
	<path d="m31.11 47c-.09-.84-2.07-20.55 7.67-28.36 4.33-3.48 10.22-4 17.48-1.55 10.69 3.6 19.93 3.25 26.72-1a19.39 19.39 0 0 0 7-7.4l2.69 1.22c-.09.2-9.21 19.47-37.36 10-6.25-2.11-11.19-1.75-14.69 1.05-8.49 6.8-6.57 27-6.57 26.1z" fill="#000"/>
</svg>